<svg width="102" height="48" viewBox="0 0 102 48" fill="none" xmlns="http://www.w3.org/2000/svg">
<rect x="0.666626" width="101.333" height="48" rx="12" fill="white"/>
<rect x="0.666626" width="101.333" height="48" rx="12" fill="black" fill-opacity="0.03"/>
<path d="M51.3339 16C49.1612 16 48.8885 16.0095 48.0352 16.0483C47.1835 16.0873 46.6022 16.2222 46.0935 16.42C45.5673 16.6243 45.121 16.8977 44.6763 17.3425C44.2313 17.7872 43.958 18.2335 43.753 18.7595C43.5546 19.2683 43.4196 19.8498 43.3813 20.7012C43.3433 21.5545 43.3333 21.8273 43.3333 24C43.3333 26.1727 43.343 26.4445 43.3816 27.2978C43.4208 28.1495 43.5556 28.7308 43.7533 29.2395C43.9578 29.7657 44.2311 30.212 44.676 30.6567C45.1205 31.1017 45.5668 31.3757 46.0927 31.58C46.6017 31.7778 47.1832 31.9127 48.0347 31.9517C48.888 31.9905 49.1605 32 51.333 32C53.5059 32 53.7777 31.9905 54.6311 31.9517C55.4828 31.9127 56.0648 31.7778 56.5738 31.58C57.0998 31.3757 57.5454 31.1017 57.9899 30.6567C58.435 30.212 58.7083 29.7657 58.9133 29.2397C59.11 28.7308 59.245 28.1493 59.285 27.298C59.3233 26.4447 59.3333 26.1727 59.3333 24C59.3333 21.8273 59.3233 21.5547 59.285 20.7013C59.245 19.8497 59.11 19.2683 58.9133 18.7597C58.7083 18.2335 58.435 17.7872 57.9899 17.3425C57.5449 16.8975 57.0999 16.6242 56.5733 16.42C56.0633 16.2222 55.4816 16.0873 54.6299 16.0483C53.7766 16.0095 53.5049 16 51.3315 16H51.3339ZM50.6162 17.4417C50.8292 17.4413 51.0669 17.4417 51.3339 17.4417C53.4699 17.4417 53.7231 17.4493 54.5666 17.4877C55.3466 17.5233 55.7699 17.6537 56.0519 17.7632C56.4253 17.9082 56.6914 18.0815 56.9713 18.3615C57.2513 18.6415 57.4246 18.9082 57.5699 19.2815C57.6794 19.5632 57.8099 19.9865 57.8454 20.7665C57.8838 21.6098 57.8921 21.8632 57.8921 23.9982C57.8921 26.1332 57.8838 26.3865 57.8454 27.2298C57.8098 28.0098 57.6794 28.4332 57.5699 28.7148C57.4249 29.0882 57.2513 29.354 56.9713 29.6338C56.6913 29.9138 56.4254 30.0872 56.0519 30.2322C55.7703 30.3422 55.3466 30.4722 54.5666 30.5078C53.7232 30.5462 53.4699 30.5545 51.3339 30.5545C49.1977 30.5545 48.9445 30.5462 48.1012 30.5078C47.3212 30.4718 46.8978 30.3415 46.6157 30.232C46.2423 30.087 45.9757 29.9137 45.6957 29.6337C45.4156 29.3537 45.2423 29.0877 45.097 28.7142C44.9875 28.4325 44.857 28.0092 44.8215 27.2292C44.7831 26.3858 44.7755 26.1325 44.7755 23.9962C44.7755 21.8598 44.7831 21.6078 44.8215 20.7645C44.8571 19.9845 44.9875 19.5612 45.097 19.2792C45.242 18.9058 45.4156 18.6392 45.6957 18.3592C45.9757 18.0792 46.2423 17.9058 46.6157 17.7605C46.8977 17.6505 47.3212 17.5205 48.1012 17.4847C48.8392 17.4513 49.1252 17.4413 50.6162 17.4397V17.4417Z" fill="url(#paint0_radial_2_1222)"/>
<path d="M55.5871 18.7503C55.3972 18.7503 55.2115 18.8067 55.0537 18.9122C54.8958 19.0177 54.7727 19.1676 54.7001 19.343C54.6274 19.5185 54.6084 19.7115 54.6455 19.8978C54.6826 20.084 54.774 20.255 54.9083 20.3893C55.0426 20.5235 55.2137 20.6149 55.4 20.6519C55.5862 20.6889 55.7793 20.6699 55.9547 20.5972C56.1301 20.5245 56.28 20.4014 56.3854 20.2435C56.4909 20.0855 56.5471 19.8999 56.5471 19.71C56.5471 19.18 56.1171 18.75 55.5871 18.75V18.7503Z" fill="url(#paint1_radial_2_1222)"/>
<path fill-rule="evenodd" clip-rule="evenodd" d="M51.3167 19.872C49.0478 19.872 47.2083 21.7115 47.2083 23.9803C47.2083 26.2492 49.0478 28.0878 51.3167 28.0878C53.5855 28.0878 55.4246 26.2492 55.4246 23.9803C55.4246 21.7115 53.5855 19.872 51.3167 19.872ZM51.3333 26.625C52.783 26.625 53.9583 25.4498 53.9583 24C53.9583 22.5503 52.783 21.375 51.3333 21.375C49.8836 21.375 48.7083 22.5503 48.7083 24C48.7083 25.4498 49.8836 26.625 51.3333 26.625Z" fill="url(#paint2_radial_2_1222)"/>
<path d="M51.3339 16C49.1612 16 48.8885 16.0095 48.0352 16.0483C47.1835 16.0873 46.6022 16.2222 46.0935 16.42C45.5673 16.6243 45.121 16.8977 44.6763 17.3425C44.2313 17.7872 43.958 18.2335 43.753 18.7595C43.5546 19.2683 43.4196 19.8498 43.3813 20.7012C43.3433 21.5545 43.3333 21.8273 43.3333 24C43.3333 26.1727 43.343 26.4445 43.3816 27.2978C43.4208 28.1495 43.5556 28.7308 43.7533 29.2395C43.9578 29.7657 44.2311 30.212 44.676 30.6567C45.1205 31.1017 45.5668 31.3757 46.0927 31.58C46.6017 31.7778 47.1832 31.9127 48.0347 31.9517C48.888 31.9905 49.1605 32 51.333 32C53.5059 32 53.7777 31.9905 54.6311 31.9517C55.4828 31.9127 56.0648 31.7778 56.5738 31.58C57.0998 31.3757 57.5454 31.1017 57.9899 30.6567C58.435 30.212 58.7083 29.7657 58.9133 29.2397C59.11 28.7308 59.245 28.1493 59.285 27.298C59.3233 26.4447 59.3333 26.1727 59.3333 24C59.3333 21.8273 59.3233 21.5547 59.285 20.7013C59.245 19.8497 59.11 19.2683 58.9133 18.7597C58.7083 18.2335 58.435 17.7872 57.9899 17.3425C57.5449 16.8975 57.0999 16.6242 56.5733 16.42C56.0633 16.2222 55.4816 16.0873 54.6299 16.0483C53.7766 16.0095 53.5049 16 51.3315 16H51.3339ZM50.6162 17.4417C50.8292 17.4413 51.0669 17.4417 51.3339 17.4417C53.4699 17.4417 53.7231 17.4493 54.5666 17.4877C55.3466 17.5233 55.7699 17.6537 56.0519 17.7632C56.4253 17.9082 56.6914 18.0815 56.9713 18.3615C57.2513 18.6415 57.4246 18.9082 57.5699 19.2815C57.6794 19.5632 57.8099 19.9865 57.8454 20.7665C57.8838 21.6098 57.8921 21.8632 57.8921 23.9982C57.8921 26.1332 57.8838 26.3865 57.8454 27.2298C57.8098 28.0098 57.6794 28.4332 57.5699 28.7148C57.4249 29.0882 57.2513 29.354 56.9713 29.6338C56.6913 29.9138 56.4254 30.0872 56.0519 30.2322C55.7703 30.3422 55.3466 30.4722 54.5666 30.5078C53.7232 30.5462 53.4699 30.5545 51.3339 30.5545C49.1977 30.5545 48.9445 30.5462 48.1012 30.5078C47.3212 30.4718 46.8978 30.3415 46.6157 30.232C46.2423 30.087 45.9757 29.9137 45.6957 29.6337C45.4156 29.3537 45.2423 29.0877 45.097 28.7142C44.9875 28.4325 44.857 28.0092 44.8215 27.2292C44.7831 26.3858 44.7755 26.1325 44.7755 23.9962C44.7755 21.8598 44.7831 21.6078 44.8215 20.7645C44.8571 19.9845 44.9875 19.5612 45.097 19.2792C45.242 18.9058 45.4156 18.6392 45.6957 18.3592C45.9757 18.0792 46.2423 17.9058 46.6157 17.7605C46.8977 17.6505 47.3212 17.5205 48.1012 17.4847C48.8392 17.4513 49.1252 17.4413 50.6162 17.4397V17.4417Z" fill="url(#paint3_radial_2_1222)"/>
<path d="M55.5871 18.7503C55.3972 18.7503 55.2115 18.8067 55.0537 18.9122C54.8958 19.0177 54.7727 19.1676 54.7001 19.343C54.6274 19.5185 54.6084 19.7115 54.6455 19.8978C54.6826 20.084 54.774 20.255 54.9083 20.3893C55.0426 20.5235 55.2137 20.6149 55.4 20.6519C55.5862 20.6889 55.7793 20.6699 55.9547 20.5972C56.1301 20.5245 56.28 20.4014 56.3854 20.2435C56.4909 20.0855 56.5471 19.8999 56.5471 19.71C56.5471 19.18 56.1171 18.7503 55.5871 18.7503Z" fill="url(#paint4_radial_2_1222)"/>
<path fill-rule="evenodd" clip-rule="evenodd" d="M51.3167 19.872C49.0478 19.872 47.2083 21.7115 47.2083 23.9803C47.2083 26.2492 49.0478 28.0878 51.3167 28.0878C53.5855 28.0878 55.4246 26.2492 55.4246 23.9803C55.4246 21.7115 53.5855 19.872 51.3167 19.872ZM51.3333 26.625C52.783 26.625 53.9583 25.4498 53.9583 24C53.9583 22.5503 52.783 21.375 51.3333 21.375C49.8835 21.375 48.7083 22.5503 48.7083 24C48.7083 25.4498 49.8835 26.625 51.3333 26.625Z" fill="url(#paint5_radial_2_1222)"/>
<defs>
<radialGradient id="paint0_radial_2_1222" cx="0" cy="0" r="1" gradientUnits="userSpaceOnUse" gradientTransform="translate(47.5833 33.2323) rotate(-90) scale(15.8572 14.7484)">
<stop stop-color="#FFDD55"/>
<stop offset="0.1" stop-color="#FFDD55"/>
<stop offset="0.5" stop-color="#FF543E"/>
<stop offset="1" stop-color="#C837AB"/>
</radialGradient>
<radialGradient id="paint1_radial_2_1222" cx="0" cy="0" r="1" gradientUnits="userSpaceOnUse" gradientTransform="translate(47.5833 33.2323) rotate(-90) scale(15.8572 14.7484)">
<stop stop-color="#FFDD55"/>
<stop offset="0.1" stop-color="#FFDD55"/>
<stop offset="0.5" stop-color="#FF543E"/>
<stop offset="1" stop-color="#C837AB"/>
</radialGradient>
<radialGradient id="paint2_radial_2_1222" cx="0" cy="0" r="1" gradientUnits="userSpaceOnUse" gradientTransform="translate(47.5833 33.2323) rotate(-90) scale(15.8572 14.7484)">
<stop stop-color="#FFDD55"/>
<stop offset="0.1" stop-color="#FFDD55"/>
<stop offset="0.5" stop-color="#FF543E"/>
<stop offset="1" stop-color="#C837AB"/>
</radialGradient>
<radialGradient id="paint3_radial_2_1222" cx="0" cy="0" r="1" gradientUnits="userSpaceOnUse" gradientTransform="translate(40.6532 17.1526) rotate(78.6806) scale(7.08823 29.218)">
<stop stop-color="#3771C8"/>
<stop offset="0.128" stop-color="#3771C8"/>
<stop offset="1" stop-color="#6600FF" stop-opacity="0"/>
</radialGradient>
<radialGradient id="paint4_radial_2_1222" cx="0" cy="0" r="1" gradientUnits="userSpaceOnUse" gradientTransform="translate(40.6532 17.1526) rotate(78.6806) scale(7.08823 29.218)">
<stop stop-color="#3771C8"/>
<stop offset="0.128" stop-color="#3771C8"/>
<stop offset="1" stop-color="#6600FF" stop-opacity="0"/>
</radialGradient>
<radialGradient id="paint5_radial_2_1222" cx="0" cy="0" r="1" gradientUnits="userSpaceOnUse" gradientTransform="translate(40.6532 17.1526) rotate(78.6806) scale(7.08823 29.218)">
<stop stop-color="#3771C8"/>
<stop offset="0.128" stop-color="#3771C8"/>
<stop offset="1" stop-color="#6600FF" stop-opacity="0"/>
</radialGradient>
</defs>
</svg>
