<svg width="102" height="48" viewBox="0 0 102 48" fill="none" xmlns="http://www.w3.org/2000/svg">
<rect x="-3.8147e-05" width="101.333" height="48" rx="12" fill="white"/>
<rect x="-3.8147e-05" width="101.333" height="48" rx="12" fill="black" fill-opacity="0.03"/>
<path fill-rule="evenodd" clip-rule="evenodd" d="M49.188 22.3038V21.6798C48.9714 21.6491 48.753 21.6332 48.5342 21.6322C45.8591 21.6322 43.6827 23.8086 43.6827 26.4833C43.6827 28.124 44.5028 29.5763 45.7539 30.4546C44.9162 29.5589 44.4505 28.3782 44.4511 27.1519C44.4511 24.5153 46.5656 22.3653 49.188 22.3038Z" fill="#00F2EA"/>
<path fill-rule="evenodd" clip-rule="evenodd" d="M49.3029 29.3651C50.4964 29.3651 51.4701 28.4158 51.5144 27.2327L51.5185 16.6714H53.4482C53.407 16.4509 53.3862 16.227 53.3859 16.0027H50.7504L50.746 26.5644C50.702 27.7471 49.728 28.6961 48.5348 28.6961C48.1765 28.6962 47.8237 28.6089 47.5069 28.4418C47.7114 28.7272 47.981 28.9598 48.2933 29.1203C48.6056 29.2809 48.9517 29.3648 49.3029 29.3651ZM57.0539 20.2578V19.6708C56.3446 19.6714 55.6507 19.4652 55.057 19.0772C55.5775 19.6764 56.2783 20.0906 57.0542 20.2578" fill="#00F2EA"/>
<path fill-rule="evenodd" clip-rule="evenodd" d="M55.0587 19.067C54.4769 18.4014 54.1565 17.5474 54.1569 16.6634H53.4507C53.5421 17.152 53.7318 17.6169 54.0082 18.0301C54.2846 18.4432 54.642 18.796 55.0587 19.067ZM48.5349 24.2606C47.9475 24.2613 47.3844 24.4949 46.969 24.9102C46.5537 25.3255 46.32 25.8885 46.3193 26.4758C46.3197 26.8798 46.4305 27.2761 46.6398 27.6217C46.8491 27.9673 47.1488 28.2491 47.5066 28.4368C47.2342 28.0611 47.0875 27.6089 47.0874 27.1449C47.088 26.5575 47.3216 25.9944 47.737 25.579C48.1524 25.1636 48.7156 24.93 49.303 24.9293C49.5313 24.9293 49.7501 24.967 49.9568 25.0319V22.3414C49.7402 22.3108 49.5218 22.2948 49.303 22.2938C49.2645 22.2938 49.2268 22.296 49.1887 22.2967V24.3632C48.9773 24.2959 48.7568 24.2613 48.5349 24.2606Z" fill="#FF004F"/>
<path fill-rule="evenodd" clip-rule="evenodd" d="M57.0501 20.2578V22.3059C55.6832 22.3059 54.4171 21.8688 53.383 21.1269V26.4825C53.383 29.1571 51.2069 31.3331 48.5318 31.3331C47.498 31.3331 46.5393 31.0071 45.7515 30.4538C46.2044 30.9422 46.7534 31.3318 47.364 31.5982C47.9746 31.8646 48.6337 32.002 49.2999 32.0018C51.975 32.0018 54.1514 29.8258 54.1514 27.1515V21.7959C55.2198 22.564 56.5027 22.9765 57.8186 22.9749V20.3391C57.5547 20.3391 57.2982 20.3105 57.0501 20.2574" fill="#FF004F"/>
<path fill-rule="evenodd" clip-rule="evenodd" d="M53.3857 26.4796V21.124C54.454 21.8921 55.737 22.3046 57.0529 22.303V20.2549C56.277 20.0876 55.5763 19.6732 55.056 19.074C54.6393 18.803 54.2819 18.4502 54.0055 18.0371C53.7291 17.624 53.5394 17.159 53.448 16.6704H51.5182L51.5142 27.2318C51.4699 28.4145 50.4962 29.3638 49.3026 29.3638C48.9514 29.3635 48.6054 29.2795 48.2931 29.119C47.9808 28.9584 47.7112 28.7259 47.5066 28.4405C47.1487 28.2529 46.8489 27.9711 46.6395 27.6255C46.4302 27.2799 46.3193 26.8836 46.3189 26.4796C46.3196 25.8922 46.5532 25.3292 46.9686 24.9139C47.3839 24.4986 47.9471 24.265 48.5345 24.2643C48.7625 24.2643 48.9812 24.3017 49.1883 24.3669V22.3005C46.5659 22.362 44.4514 24.512 44.4514 27.1486C44.4514 28.4237 44.9469 29.5844 45.7542 30.4513C46.5681 31.0241 47.5392 31.3311 48.5345 31.3303C51.2097 31.3303 53.3857 29.1542 53.3857 26.4796Z" fill="black"/>
</svg>
