<svg width="102" height="48" viewBox="0 0 102 48" fill="none" xmlns="http://www.w3.org/2000/svg">
<rect x="0.333282" width="101.333" height="48" rx="12" fill="white"/>
<rect x="0.333282" width="101.333" height="48" rx="12" fill="black" fill-opacity="0.03"/>
<path fill-rule="evenodd" clip-rule="evenodd" d="M60.5999 24.2273C60.5999 23.5182 60.5363 22.8364 60.4181 22.1818H50.9999V26.05H56.3818C56.1499 27.3 55.4454 28.3591 54.3863 29.0682V31.5773H57.6181C59.509 29.8364 60.5999 27.2727 60.5999 24.2273Z" fill="#4285F4"/>
<path fill-rule="evenodd" clip-rule="evenodd" d="M50.9999 33.9998C53.6999 33.9998 55.9635 33.1044 57.6181 31.5771L54.3862 29.068C53.4908 29.668 52.3453 30.0226 50.9999 30.0226C48.3953 30.0226 46.1908 28.2635 45.4044 25.8998H42.0635V28.4908C43.709 31.7589 47.0908 33.9998 50.9999 33.9998Z" fill="#34A853"/>
<path fill-rule="evenodd" clip-rule="evenodd" d="M45.4045 25.9001C45.2045 25.3001 45.0908 24.6592 45.0908 24.0001C45.0908 23.341 45.2045 22.7001 45.4045 22.1001V19.5092H42.0636C41.3863 20.8592 40.9999 22.3864 40.9999 24.0001C40.9999 25.6137 41.3863 27.141 42.0636 28.491L45.4045 25.9001Z" fill="#FBBC05"/>
<path fill-rule="evenodd" clip-rule="evenodd" d="M50.9999 17.9773C52.4681 17.9773 53.7862 18.4818 54.8226 19.4727L57.6908 16.6045C55.959 14.9909 53.6953 14 50.9999 14C47.0908 14 43.709 16.2409 42.0635 19.5091L45.4044 22.1C46.1908 19.7364 48.3953 17.9773 50.9999 17.9773Z" fill="#EA4335"/>
</svg>
